<?xml version="1.0" standalone="no"?>
<!DOCTYPE svg PUBLIC "-//W3C//DTD SVG 20010904//EN"
 "http://www.w3.org/TR/2001/REC-SVG-20010904/DTD/svg10.dtd">
<svg version="1.0" xmlns="http://www.w3.org/2000/svg"
 width="512.000000pt" height="512.000000pt" viewBox="0 0 512.000000 512.000000"
 preserveAspectRatio="xMidYMid meet">

<g transform="translate(0.000000,512.000000) scale(0.100000,-0.100000)"
fill="#000000" stroke="none">
<path d="M2230 4534 c-31 -9 -338 -227 -994 -704 -523 -379 -967 -706 -987
-726 -58 -57 -83 -123 -84 -219 0 -68 4 -89 28 -137 32 -65 90 -121 156 -152
35 -16 65 -21 131 -21 89 0 131 14 205 70 17 12 394 286 839 609 l809 588 26
-19 c14 -11 190 -139 392 -285 l365 -266 85 9 c166 19 370 -17 534 -95 231
-109 396 -270 507 -493 27 -57 52 -103 55 -103 20 0 89 49 126 90 61 67 81
129 75 229 -5 88 -29 142 -86 199 -21 20 -221 170 -445 332 l-407 295 0 303
c0 299 -3 334 -34 354 -6 4 -86 8 -178 8 -212 0 -198 14 -198 -202 0 -87 -2
-158 -5 -158 -2 0 -150 106 -327 235 -201 146 -343 242 -376 255 -62 23 -146
25 -212 4z"/>
<path d="M1547 3074 l-777 -566 2 -907 3 -907 28 -43 c54 -82 47 -81 579 -81
l467 0 3 588 3 587 26 55 c57 122 154 188 290 197 l79 6 -7 51 c-16 104 -8
325 15 417 75 307 294 579 567 705 46 22 83 42 82 46 -3 9 -566 418 -575 418
-4 0 -357 -255 -785 -566z"/>
<path d="M3210 3124 c-214 -27 -383 -104 -532 -243 -131 -123 -209 -251 -260
-427 -19 -68 -23 -101 -22 -234 1 -138 3 -164 27 -243 97 -317 331 -544 647
-628 118 -32 328 -32 445 0 96 26 241 95 310 149 l51 38 137 -131 138 -130
-17 -33 c-9 -20 -13 -43 -10 -58 6 -22 269 -288 473 -477 102 -94 109 -94 233
29 108 106 136 147 127 187 -7 27 -499 512 -543 535 -26 14 -58 9 -84 -13 -13
-11 -37 8 -157 124 l-142 136 35 59 c49 83 89 186 109 286 23 113 16 313 -14
415 -98 327 -361 575 -681 640 -73 16 -217 25 -270 19z m224 -269 c223 -47
412 -228 482 -461 28 -91 26 -258 -4 -354 -70 -223 -242 -387 -467 -445 -76
-19 -233 -19 -310 0 -226 57 -410 239 -471 466 -21 77 -23 231 -5 309 35 147
149 310 276 394 57 39 163 82 230 96 66 13 195 11 269 -5z"/>
<path d="M3810 1299 c-35 -21 -103 -53 -149 -69 -141 -51 -212 -63 -371 -63
-177 -1 -266 18 -462 98 -17 7 -18 -14 -18 -344 l0 -351 473 0 c530 0 509 -3
572 74 l30 38 3 329 c1 181 -1 329 -5 328 -4 0 -37 -18 -73 -40z"/>
</g>
</svg>
