<?xml version="1.0" standalone="no"?>
<!DOCTYPE svg PUBLIC "-//W3C//DTD SVG 20010904//EN"
 "http://www.w3.org/TR/2001/REC-SVG-20010904/DTD/svg10.dtd">
<svg version="1.0" xmlns="http://www.w3.org/2000/svg"
 width="900.000000pt" height="900.000000pt" viewBox="0 0 900.000000 900.000000"
 preserveAspectRatio="xMidYMid meet">
<metadata>
Created by potrace 1.10, written by Peter Selinger 2001-2011
</metadata>
<g transform="translate(0.000000,900.000000) scale(0.100000,-0.100000)"
fill="#ffffff" stroke="none">
<path d="M3922 6413 c-7 -2 -21 -21 -30 -41 -22 -43 -112 -215 -152 -287 -15
-27 -51 -95 -80 -150 -30 -55 -68 -127 -86 -160 -18 -33 -44 -82 -58 -110 -14
-27 -41 -77 -59 -110 -34 -62 -120 -223 -190 -355 -22 -41 -53 -100 -70 -130
-16 -30 -45 -84 -64 -120 -19 -36 -49 -92 -67 -125 -18 -33 -56 -105 -86 -160
-29 -55 -62 -117 -74 -138 -48 -87 -85 -157 -136 -252 -29 -55 -65 -122 -80
-150 -51 -94 -103 -190 -143 -265 -22 -41 -52 -97 -67 -125 -33 -61 -88 -161
-148 -275 -25 -47 -60 -112 -78 -145 -18 -33 -51 -96 -74 -140 -23 -44 -59
-113 -81 -153 -22 -41 -37 -78 -34 -83 8 -11 345 -12 363 0 7 4 19 19 26 32 7
13 37 69 66 124 29 55 65 123 80 150 15 28 49 91 75 140 26 50 60 113 75 140
69 125 91 166 138 255 27 52 66 124 86 160 20 36 48 88 62 115 14 28 37 70 50
95 14 25 49 88 77 140 28 52 65 122 83 155 18 33 44 83 59 110 14 28 41 77 59
110 18 33 56 105 86 160 29 55 65 123 80 150 15 28 49 91 75 140 26 50 60 113
75 140 15 28 49 91 75 140 26 50 60 113 75 140 15 28 48 88 72 135 25 47 69
130 98 185 30 55 61 114 69 132 20 39 39 32 69 -24 55 -107 117 -224 143 -269
l28 -52 -43 -83 c-50 -98 -127 -243 -166 -314 -43 -78 -142 -262 -228 -425
-96 -183 -136 -258 -156 -293 -62 -114 -164 -303 -229 -427 -16 -30 -40 -75
-54 -100 -30 -55 -138 -256 -241 -450 -19 -36 -49 -92 -66 -125 -195 -363
-256 -482 -249 -488 3 -4 81 -7 173 -7 193 0 174 -9 240 115 94 177 125 234
172 324 28 52 58 108 69 125 10 17 29 54 44 81 14 28 47 91 75 140 27 50 61
113 75 140 14 28 48 91 75 140 28 50 61 113 76 140 14 28 40 77 58 110 18 33
59 110 91 170 32 61 66 124 75 140 9 17 38 71 65 120 71 133 114 214 145 270
29 52 124 231 147 276 7 14 21 34 32 43 18 17 20 15 45 -36 14 -29 48 -93 76
-143 27 -49 62 -115 78 -145 15 -30 48 -91 72 -135 52 -94 93 -172 148 -275
22 -41 56 -104 75 -140 20 -36 51 -94 70 -130 19 -36 48 -90 64 -120 17 -30
52 -95 78 -145 26 -49 60 -114 76 -142 66 -119 89 -163 139 -258 51 -95 88
-165 136 -252 12 -21 44 -81 71 -133 28 -52 60 -111 71 -130 11 -19 30 -54 42
-78 38 -74 32 -72 226 -72 147 0 176 2 180 15 4 8 2 21 -4 28 -5 6 -32 55 -59
107 -84 159 -144 272 -181 340 -51 96 -154 289 -242 455 -29 55 -65 123 -80
150 -15 28 -48 89 -74 138 -25 48 -67 126 -92 175 -26 48 -64 119 -84 157 -46
86 -142 267 -186 349 -18 34 -51 97 -73 141 -23 44 -58 109 -77 145 -35 63
-78 143 -179 335 -26 50 -67 127 -92 173 -24 46 -73 138 -108 205 -35 67 -79
151 -98 187 -20 36 -53 99 -75 140 -22 41 -60 113 -85 160 l-46 85 -183 2
c-101 1 -189 -1 -196 -4z"/>
<path d="M4725 6410 c-7 -11 -3 -20 70 -155 114 -213 129 -242 145 -270 9 -16
43 -79 75 -140 33 -60 74 -137 92 -170 17 -33 44 -82 58 -110 15 -27 41 -77
59 -110 18 -33 57 -107 88 -165 30 -58 66 -123 78 -145 13 -22 40 -74 62 -115
22 -41 54 -102 72 -135 18 -33 57 -107 88 -165 31 -58 67 -125 80 -150 59
-105 88 -160 132 -242 25 -49 67 -127 92 -175 26 -49 59 -110 74 -138 15 -27
41 -75 57 -105 17 -30 54 -100 83 -155 30 -55 68 -127 86 -160 18 -33 49 -91
70 -130 20 -38 49 -93 65 -121 29 -53 71 -131 158 -299 29 -55 60 -106 69
-113 11 -8 63 -12 174 -12 186 0 188 1 141 89 -37 69 -95 176 -139 256 -18 33
-45 83 -59 110 -30 57 -73 138 -129 240 -130 237 -146 266 -206 380 -29 55
-62 116 -73 135 -11 19 -35 64 -55 100 -38 71 -81 151 -120 220 -13 25 -49 92
-80 150 -31 58 -70 132 -88 165 -18 33 -45 85 -61 115 -16 30 -49 91 -73 135
-57 105 -103 188 -135 250 -14 28 -43 82 -64 120 -20 39 -59 111 -86 160 -26
50 -57 107 -69 128 -42 76 -83 154 -128 237 -46 86 -87 164 -154 288 -21 37
-48 90 -62 117 -50 98 -44 95 -223 95 -96 0 -160 -4 -164 -10z"/>
</g>
</svg>
