<?xml version="1.0" standalone="no"?>
<!DOCTYPE svg PUBLIC "-//W3C//DTD SVG 20010904//EN"
 "http://www.w3.org/TR/2001/REC-SVG-20010904/DTD/svg10.dtd">
<svg version="1.0" xmlns="http://www.w3.org/2000/svg"
 width="512.000000pt" height="512.000000pt" viewBox="0 0 512.000000 512.000000"
 preserveAspectRatio="xMidYMid meet">

<g transform="translate(0.000000,512.000000) scale(0.100000,-0.100000)"
fill="#000000" stroke="none">
<path d="M460 5113 c-194 -32 -358 -172 -432 -369 l-23 -59 -3 -1823 -2 -1822
72 61 c89 75 226 142 330 163 48 10 130 16 218 16 l142 0 29 29 29 29 0 1865
0 1865 -31 26 c-30 25 -34 26 -167 25 -75 -1 -148 -4 -162 -6z"/>
<path d="M4643 5038 l-83 -83 198 -198 198 -198 82 84 c119 122 122 112 -81
314 -202 203 -192 200 -314 81z"/>
<path d="M4354 4754 l-58 -65 197 -197 197 -197 67 68 68 67 -195 195 c-107
107 -200 195 -207 195 -6 0 -37 -30 -69 -66z"/>
<path d="M3667 4062 l-497 -497 200 -200 200 -200 498 498 497 497 -200 200
-200 200 -498 -498z"/>
<path d="M1008 2578 l-3 -1263 -23 -50 c-28 -60 -73 -109 -127 -138 -35 -19
-64 -22 -225 -28 -197 -7 -234 -15 -350 -74 -68 -34 -166 -132 -208 -207 -180
-317 11 -726 376 -803 57 -13 408 -15 2340 -15 l2274 0 29 29 29 29 0 1862 0
1862 -29 29 -29 29 -284 0 -283 0 -445 -446 c-245 -245 -461 -456 -481 -469
-55 -36 -125 -52 -326 -74 -165 -19 -240 -21 -842 -21 l-661 0 0 -500 0 -500
1095 0 1095 0 0 235 c0 259 4 282 58 304 36 15 74 6 101 -23 l21 -23 -2 -740
-3 -740 -29 -37 c-16 -21 -47 -47 -70 -57 -39 -18 -84 -19 -978 -19 -706 0
-944 3 -963 12 -29 13 -55 55 -55 87 0 11 12 33 26 50 l26 31 339 0 339 0 0
370 0 370 -500 0 -500 0 -2 -660 -3 -660 -26 -26 c-36 -36 -92 -36 -128 0
l-26 26 -3 1250 -2 1250 -135 0 c-180 0 -225 19 -225 95 0 37 16 62 50 80 25
13 133 15 814 15 l785 0 0 68 c1 120 38 383 61 437 15 36 57 86 153 182 l131
133 -1087 0 -1087 0 -2 -1262z"/>
<path d="M3041 3308 c-26 -223 -26 -251 -2 -272 21 -19 24 -19 196 -1 96 10
175 21 175 24 0 8 -343 351 -351 351 -3 0 -11 -46 -18 -102z"/>
<path d="M2930 1280 l0 -370 500 0 500 0 0 370 0 370 -500 0 -500 0 0 -370z"/>
</g>
</svg>
